<?xml version="1.0" encoding="utf-8"?>
<!-- Generator: Adobe Illustrator 20.0.0, SVG Export Plug-In . SVG Version: 6.00 Build 0)  -->
<svg version="1.1" id="Layer_1" xmlns="http://www.w3.org/2000/svg" xmlns:xlink="http://www.w3.org/1999/xlink" x="0px" y="0px"
	 viewBox="0 0 358 359.4" style="enable-background:new 0 0 358 359.4;" xml:space="preserve">
<style type="text/css">
	.st0{stroke:#000000;stroke-width:8.5343;stroke-miterlimit:10;}
	.st1{fill:#FFFFFF;stroke:#FFFFFF;stroke-width:5.2619;stroke-miterlimit:10;}
	.st2{fill:#FFFFFF;stroke:#FFFFFF;stroke-width:5.2619;stroke-linecap:round;stroke-miterlimit:10;}
</style>
<path class="st0" d="M284.9,169.9c3.1,9.6,4.7,19.9,4.7,30.5c0,58.5-50,105.9-111.7,105.9S66.2,258.9,66.2,200.4
	c0-10.8,1.7-21.3,4.9-31.2c-6-26.5-14.9-70.4-12-87c18.3-2.8,65.7,6,75.2,20.6c13.4-5.4,28.1-8.4,43.5-8.4c14.1,0,27.7,2.5,40.1,7
	c24.1-9.1,63.2-22.6,78.6-21.2C301.4,101.1,298.7,153,284.9,169.9z"/>
<path class="st1" d="M177.2,231.3c3.6,0,6.4-18.2,6.4-14.5s-2.9,6.6-6.5,6.6c-3.6,0-6.6-2.9-6.6-6.5
	C170.4,213.2,173.5,231.3,177.2,231.3z"/>
<ellipse class="st1" cx="122.3" cy="169.8" rx="8.5" ry="14.5"/>
<ellipse class="st1" cx="228.3" cy="169.8" rx="8.5" ry="14.5"/>
<line class="st2" x1="92.1" y1="222" x2="144.7" y2="225.5"/>
<line class="st2" x1="153.4" y1="236.2" x2="89.8" y2="243"/>
<line class="st2" x1="264.1" y1="222" x2="211.6" y2="225.5"/>
<line class="st2" x1="202.8" y1="236.2" x2="266.4" y2="243"/>
</svg>
